<svg width="59" height="56" viewBox="0 0 59 56" fill="none" xmlns="http://www.w3.org/2000/svg">
<path fill-rule="evenodd" clip-rule="evenodd" d="M56 28.0833C56 41.6906 44.2936 53 29.5 53C14.7064 53 3 41.6906 3 28.0833C3 14.476 14.7064 3.16669 29.5 3.16669C44.2936 3.16669 56 14.476 56 28.0833ZM59 28.0833C59 43.5013 45.7924 56 29.5 56C13.2076 56 0 43.5013 0 28.0833C0 12.6654 13.2076 0.166687 29.5 0.166687C45.7924 0.166687 59 12.6654 59 28.0833ZM21.8019 19.1938C19.2852 19.1938 17.1269 19.0438 15.3269 18.7438C15.2269 19.0938 15.1602 19.5938 15.1269 20.2438C15.1269 21.6105 15.5102 22.2938 16.2769 22.2938C17.5769 22.2938 18.9019 22.2605 20.2519 22.1938C20.1686 24.0271 19.9102 26.4521 19.4769 29.4688C19.0602 32.4688 18.8519 34.4188 18.8519 35.3188C18.8519 36.2188 19.1102 36.9771 19.6269 37.5938C20.1436 38.1938 21.1102 38.6771 22.5269 39.0438C22.2936 38.4938 22.1769 37.5105 22.1769 36.0938C22.1769 34.6771 22.4352 32.1021 22.9519 28.3688C23.4686 24.6188 23.7436 22.5021 23.7769 22.0188C24.9936 21.9355 25.8936 21.8521 26.4769 21.7688C28.3436 21.5688 29.4186 20.4105 29.7019 18.2938C26.9519 18.8938 24.3186 19.1938 21.8019 19.1938ZM40.7511 24.2438C41.6178 24.2438 42.0511 23.5605 42.0511 22.1938C42.0511 21.3771 41.9761 20.8188 41.8261 20.5188L40.9511 20.6188C39.0511 20.8355 37.0344 20.9438 34.9011 20.9438C33.6678 20.9438 32.5344 20.8688 31.5011 20.7188C31.5678 21.6021 31.8178 22.2355 32.2511 22.6188L31.0761 29.5688C32.0094 29.3521 32.9094 29.2438 33.7761 29.2438C35.3428 29.2438 36.5261 29.6605 37.3261 30.4938C38.1428 31.3271 38.5511 32.3105 38.5511 33.4438C38.5511 34.5605 38.2261 35.4605 37.5761 36.1438C36.9261 36.8105 36.2094 37.1438 35.4261 37.1438C34.6594 37.1438 34.0428 36.8938 33.5761 36.3938C33.1094 35.8771 32.8761 35.2188 32.8761 34.4188C32.8761 33.6021 33.2011 32.8188 33.8511 32.0688C33.5511 32.0188 33.2594 31.9938 32.9761 31.9938C32.0094 31.9938 31.2261 32.3105 30.6261 32.9438C30.0261 33.5771 29.7261 34.3605 29.7261 35.2938C29.7261 36.4771 30.2428 37.4105 31.2761 38.0938C32.3094 38.7605 33.5761 39.0938 35.0761 39.0938C37.1261 39.0938 38.7594 38.4521 39.9761 37.1688C41.2094 35.8855 41.8261 34.4438 41.8261 32.8438C41.8261 31.2271 41.2678 29.9355 40.1511 28.9688C39.0344 28.0021 37.4928 27.5188 35.5261 27.5188C34.8928 27.5188 34.3344 27.5605 33.8511 27.6438L34.5261 23.3188C37.6428 23.9355 39.7178 24.2438 40.7511 24.2438Z" fill="white"/>
</svg>
